<?xml version="1.0" encoding="UTF-8" standalone="no"?>
<!DOCTYPE svg PUBLIC "-//W3C//DTD SVG 1.1//EN" "http://www.w3.org/Graphics/SVG/1.1/DTD/svg11.dtd">
<svg width="100%" height="100%" viewBox="0 0 512 512" version="1.1" xmlns="http://www.w3.org/2000/svg" xmlns:xlink="http://www.w3.org/1999/xlink" xml:space="preserve" xmlns:serif="http://www.serif.com/" style="fill-rule:evenodd;clip-rule:evenodd;stroke-linecap:round;">
    <g transform="matrix(1.33697,0,0,1.34239,-120.257,-53.52)">
        <g transform="matrix(3.25518,0,0,3.2526,329.16,241.456)">
            <g transform="matrix(72,0,0,72,40.043,0)">
            </g>
            <text x="0px" y="0px" style="font-family:'Arial-BoldMT', 'Arial', sans-serif;font-weight:700;font-size:72px;fill:rgb(224,87,87);">3</text>
        </g>
        <g transform="matrix(1.94473,0,0,1.94473,-187.384,-375.159)">
            <g transform="matrix(1.48183,0,0,1.48183,-90.1716,-195.273)">
                <circle cx="256" cy="376" r="24" style="fill:rgb(33,150,243);fill-opacity:0.3;"/>
            </g>
            <g transform="matrix(1.75118,0,0,1.75118,-159.768,-295.906)">
                <path d="M256,364L256,388M244,376L268,376" style="fill:none;fill-rule:nonzero;stroke:rgb(33,150,243);stroke-width:4px;"/>
            </g>
        </g>
        <g transform="matrix(2.67625,0,0,2.67413,117.388,213.56)">
            <g transform="matrix(72,0,0,72,40.043,0)">
            </g>
            <text x="0px" y="0px" style="font-family:'Arial-BoldMT', 'Arial', sans-serif;font-weight:700;font-size:72px;fill:rgb(224,200,87);">1</text>
        </g>
        <g transform="matrix(2.88425,0,0,2.88196,216.226,261.295)">
            <g transform="matrix(72,0,0,72,40.043,0)">
            </g>
            <text x="0px" y="0px" style="font-family:'Arial-BoldMT', 'Arial', sans-serif;font-weight:700;font-size:72px;fill:rgb(69,170,77);">6</text>
        </g>
        <g transform="matrix(3.83696,0,0,3.83392,135.259,397.915)">
            <g transform="matrix(72,0,0,72,40.043,0)">
            </g>
            <text x="0px" y="0px" style="font-family:'Arial-BoldMT', 'Arial', sans-serif;font-weight:700;font-size:72px;fill:rgb(33,150,243);">5</text>
        </g>
    </g>
</svg>
